# xmcd
#
# Track frame offsets: 
#        150
#        13792
#        40267
#        54525
#        66647
#        90550
#        101875
#        116895
#        146082
#        170414
#        186367
#        201355
#        216095
#        235717
#        246905
#        262692
#        285744
#        302109
#        319309
#        335086
#
# Disc length: 4784 seconds
#
# Revision: 1
# Processed by: cddbd v1.5.2PL0 Copyright (c) Steve Scherf et al.
# Submitted via: ExactAudioCopy v1.3
#
DISCID=3b12ae14
DTITLE=Lightning Hopkins - Akella Presents - Greatest Bluesmen - vol. 
DTITLE=12  CD2
DYEAR=2017
DGENRE=Blues
TTITLE0=How Many More Years I Got To Let You Dog Me Around
TTITLE1=Stranger Here
TTITLE2=Good Morning Little School Girl
TTITLE3=You Never Miss Your Water
TTITLE4=Last Night Blues
TTITLE5=You Is One Black Rat
TTITLE6=The Fox Chase
TTITLE7=Got Nowhere To Lay My Head
TTITLE8=Happy Blues For John Glenn
TTITLE9=Black Ghost Blues
TTITLE10=Jailhouse Blues
TTITLE11=Blues In The Bottle
TTITLE12=I'm A Stranger
TTITLE13=Mean Old Frisco
TTITLE14=Hold Up Your Head
TTITLE15=I'm Gonna Meet My Baby Somewhere
TTITLE16=Don't You Call That Boogie
TTITLE17=Swing In The Backyard
TTITLE18=Don't You Mess With My Woman
TTITLE19=I Meet Texas Alexander (Interview December 1964)
EXTD=
EXTT0=
EXTT1=
EXTT2=
EXTT3=
EXTT4=
EXTT5=
EXTT6=
EXTT7=
EXTT8=
EXTT9=
EXTT10=
EXTT11=
EXTT12=
EXTT13=
EXTT14=
EXTT15=
EXTT16=
EXTT17=
EXTT18=
EXTT19=
PLAYORDER=
